<?xml version="1.0" standalone="no"?>
<!DOCTYPE svg PUBLIC "-//W3C//DTD SVG 20010904//EN"
 "http://www.w3.org/TR/2001/REC-SVG-20010904/DTD/svg10.dtd">
<svg version="1.0" xmlns="http://www.w3.org/2000/svg"
 width="600.000000pt" height="600.000000pt" viewBox="0 0 600.000000 600.000000"
 preserveAspectRatio="xMidYMid meet">

<g transform="translate(0.000000,600.000000) scale(0.100000,-0.100000)"
fill="#000000" stroke="none">
<path d="M780 4199 c0 -1578 2 -1815 16 -1908 52 -359 122 -553 313 -870 172
-284 308 -451 557 -683 188 -175 291 -258 433 -352 210 -139 347 -203 663
-307 l238 -78 185 60 c244 79 343 117 477 185 233 117 428 262 703 521 267
252 408 438 615 808 112 199 177 402 219 677 21 134 21 164 21 1942 l0 1806
-2220 0 -2220 0 0 -1801z m3510 1284 c0 -16 -7 -181 -15 -368 -8 -187 -15
-372 -15 -411 l0 -72 -85 -21 c-46 -11 -98 -21 -115 -21 l-31 0 18 -24 c17
-23 18 -23 25 -5 10 25 36 24 65 -3 25 -24 28 -39 12 -69 -9 -17 -13 -18 -27
-7 -9 7 -1 -8 18 -35 l34 -47 11 32 c6 18 23 53 38 78 l27 45 -2 -95 c-3 -95
-3 -95 -29 -95 l-25 0 24 -43 25 -44 -32 -821 c-17 -452 -34 -879 -38 -948
l-6 -127 -71 24 c-364 124 -864 177 -1371 144 -272 -18 -581 -77 -789 -149
-33 -12 -65 -21 -71 -21 -8 0 -15 24 -19 62 -4 35 -12 68 -16 73 -5 6 -23 380
-39 831 -17 450 -32 854 -34 897 -2 43 0 73 3 67 4 -7 16 3 29 25 11 20 21 38
21 41 0 2 -13 4 -30 4 l-30 0 0 63 0 63 55 23 c45 19 58 21 70 11 39 -32 -8
-86 -67 -78 l-32 5 27 -23 26 -23 29 27 c58 54 66 95 27 132 -27 25 -31 25
-127 -7 -15 -4 -18 1 -18 32 0 37 0 37 33 31 l32 -6 -32 22 c-22 15 -33 31
-33 48 0 14 -7 189 -15 390 -8 201 -15 377 -15 393 l0 27 1290 0 1290 0 0 -27z
m-95 -912 c-19 -37 -28 -39 -48 -7 -16 24 -16 24 21 33 20 5 38 9 40 7 2 -1
-4 -16 -13 -33z m-739 -2056 c240 -25 450 -71 668 -144 65 -22 120 -41 121
-43 2 -3 -171 -387 -178 -394 -2 -2 -24 3 -48 11 -126 45 -395 102 -594 126
-166 21 -684 18 -845 -4 -164 -23 -332 -58 -466 -97 -60 -18 -115 -33 -122
-34 -18 -2 -194 387 -179 396 24 13 235 80 327 103 140 35 299 64 440 79 180
20 692 20 876 1z m-1684 -62 c-10 -16 -24 -43 -30 -62 -11 -31 -7 -44 57 -192
l69 -157 -82 -40 c-139 -67 -310 -181 -504 -338 l-32 -27 39 94 c22 52 57 136
80 188 22 52 42 101 43 110 3 14 -19 17 -167 21 l-170 5 105 83 c196 154 387
270 531 321 76 27 84 26 61 -6z m2559 8 c137 -47 327 -162 519 -315 l114 -91
-159 -3 c-88 -1 -163 -6 -167 -10 -5 -5 17 -66 48 -138 124 -287 117 -268 90
-247 -251 193 -371 273 -522 345 l-82 40 34 79 c19 43 49 115 68 159 37 84 37
100 2 168 -19 37 -17 38 55 13z m-2501 -63 c0 -10 -7 -18 -15 -18 -17 0 -18 4
-8 38 4 18 8 20 14 10 5 -7 9 -21 9 -30z m2410 23 c0 -5 3 -16 6 -25 4 -11 1
-16 -10 -16 -10 0 -16 9 -16 25 0 14 5 25 10 25 6 0 10 -4 10 -9z m-2361 -326
c0 -5 -8 6 -19 25 -11 19 -19 40 -19 45 0 6 8 -6 19 -25 11 -19 19 -39 19 -45z
m103 -190 c139 48 348 99 543 131 131 21 683 31 850 15 212 -21 480 -75 636
-129 31 -11 61 -17 67 -13 5 3 23 33 38 66 l29 60 3 -70 c3 -69 -45 -1325 -50
-1330 -2 -2 -56 -41 -121 -89 -301 -219 -640 -397 -896 -471 l-85 -25 -96 31
c-217 71 -440 172 -635 289 -166 100 -375 250 -375 269 0 9 -11 313 -25 676
-14 363 -25 666 -25 672 0 7 14 20 30 28 25 13 29 19 20 35 -5 10 -10 22 -9
27 0 4 20 -34 44 -84 29 -61 48 -91 57 -88z"/>
<path d="M2942 5300 c-44 -108 -75 -178 -88 -197 -14 -22 -14 -23 23 -23 33 0
35 1 19 13 -13 10 -16 20 -12 35 6 18 15 22 51 22 36 0 45 -4 51 -22 5 -13 7
-26 6 -30 -1 -5 19 -8 46 -7 26 0 41 3 33 6 -7 3 -37 56 -66 117 -49 103 -54
109 -63 86z m18 -127 c0 -8 -12 -13 -30 -13 -35 0 -34 -3 -14 46 l17 39 13
-30 c7 -16 13 -36 14 -42z"/>
<path d="M3117 5309 c6 -8 23 -45 37 -82 25 -68 26 -123 2 -139 -5 -4 2 -9 17
-12 86 -18 83 -18 64 -4 -15 11 -17 20 -9 55 10 42 84 143 106 143 6 0 4 5 -4
10 -8 5 -24 10 -35 10 -15 0 -17 -2 -6 -9 8 -5 10 -14 5 -22 -15 -25 -59 -79
-65 -79 -9 0 -40 110 -34 120 4 6 -6 10 -24 10 -16 0 -38 3 -48 7 -15 5 -16 4
-6 -8z"/>
<path d="M2695 5286 c-37 -9 -45 -13 -30 -17 17 -5 24 -22 38 -85 9 -44 17
-89 17 -102 0 -29 -28 -29 -32 0 -4 27 -35 36 -44 14 -16 -41 58 -62 104 -30
26 18 27 39 5 140 -14 65 -14 77 -2 85 18 11 7 10 -56 -5z"/>
<path d="M3427 5250 c8 -9 4 -32 -17 -95 -15 -45 -33 -91 -38 -102 -10 -18 -5
-22 69 -48 86 -30 82 -30 110 19 11 18 10 18 -12 2 -26 -17 -76 -21 -98 -7
-12 8 -13 16 -2 51 14 46 41 52 51 11 4 -20 8 -15 22 29 16 50 16 51 -1 36
-10 -9 -25 -16 -34 -16 -14 0 -14 4 0 45 8 25 18 45 21 45 23 0 72 -43 73 -62
1 -21 2 -20 11 5 5 16 8 30 6 33 -3 2 -43 18 -89 35 -46 17 -79 25 -72 19z"/>
<path d="M2353 5061 c3 -68 2 -122 -4 -133 -11 -21 -3 -22 30 -4 19 11 21 14
7 19 -9 4 -16 17 -16 30 0 17 10 28 36 41 35 16 37 16 56 0 10 -10 16 -23 14
-31 -3 -8 11 -5 39 9 l44 21 -25 13 c-14 8 -53 37 -87 67 -111 95 -101 99 -94
-32z m50 1 l27 -29 -25 -11 c-34 -16 -32 -17 -37 28 -2 22 -1 40 2 40 4 0 18
-13 33 -28z"/>
<path d="M3654 5066 c-29 -29 -34 -41 -34 -81 0 -40 5 -52 34 -81 19 -19 36
-42 38 -51 2 -9 9 -18 17 -21 9 -3 11 1 7 15 -5 17 -2 19 23 15 16 -2 32 1 36
9 6 9 2 11 -14 6 -38 -9 -51 1 -40 30 11 31 3 63 -17 63 -17 0 -17 -5 -3 -29
8 -12 9 -23 2 -36 -10 -17 -12 -16 -28 9 -17 25 -17 29 -1 71 19 48 66 95 96
95 34 0 73 -43 72 -80 l-1 -34 19 29 18 28 -45 38 c-39 34 -50 39 -95 39 -44
0 -54 -4 -84 -34z"/>
<path d="M2067 4995 c-64 -44 -83 -60 -53 -49 18 7 130 -151 122 -172 -5 -12
0 -12 25 3 39 23 57 43 38 43 -8 0 -25 17 -39 38 -14 20 -40 57 -58 81 l-34
45 26 13 c50 26 99 -35 62 -76 -17 -18 -15 -20 49 -41 64 -21 66 -21 95 -3
l29 18 -64 19 -63 18 5 34 c7 40 -17 74 -51 74 -12 0 -52 -20 -89 -45z"/>
<path d="M3919 4862 c-26 -65 -46 -118 -44 -120 2 -2 35 10 74 27 39 17 71 28
71 25 0 -3 -13 -36 -30 -75 -16 -38 -27 -69 -25 -69 2 0 55 24 119 53 88 41
112 57 104 65 -14 14 -32 16 -23 2 5 -8 -113 -76 -120 -68 -2 2 9 31 23 66 19
47 30 61 41 57 9 -4 0 10 -19 30 l-34 36 -11 -36 c-8 -29 -19 -40 -52 -55 -24
-10 -43 -15 -43 -10 0 16 50 124 60 130 6 4 -2 18 -17 32 l-28 26 -46 -116z"/>
<path d="M2410 4519 c-322 -242 -588 -444 -592 -448 -7 -6 294 -917 428 -1298
l36 -103 723 0 722 0 228 688 c125 378 228 692 229 699 1 10 -1170 903 -1184
903 -3 0 -268 -198 -590 -441z m1180 -19 c316 -238 577 -435 579 -436 2 -2
-99 -314 -225 -694 l-228 -690 -713 0 c-392 0 -713 2 -713 4 0 2 -104 311
-230 686 -127 375 -230 686 -228 691 2 5 35 32 74 61 93 69 701 528 913 690
91 69 173 125 181 124 9 -2 275 -198 590 -436z"/>
<path d="M2870 4578 c0 -18 -5 -68 -12 -111 l-12 -78 -27 31 c-27 29 -59 40
-59 21 0 -31 44 -192 59 -218 11 -17 40 -41 66 -53 97 -47 290 -21 314 42 8
22 21 268 13 268 -15 0 -44 -26 -58 -51 -8 -17 -18 -28 -21 -25 -7 6 -36 85
-60 159 -14 46 -16 48 -33 32 -10 -9 -24 -39 -31 -66 -7 -27 -16 -49 -19 -49
-3 0 -12 16 -19 35 -14 39 -65 95 -87 95 -9 0 -14 -11 -14 -32z"/>
<path d="M2276 4287 c-14 -52 -6 -124 16 -152 13 -17 23 -45 25 -72 3 -57 35
-127 67 -148 19 -13 26 -26 26 -50 0 -39 28 -78 69 -94 20 -9 31 -22 35 -44 8
-38 33 -67 58 -67 27 0 56 -17 68 -41 9 -16 7 -25 -10 -47 -53 -66 -66 -171
-31 -248 24 -53 93 -118 157 -150 58 -28 146 -54 186 -54 23 0 28 -5 34 -35 5
-30 10 -35 35 -35 26 0 29 3 29 35 0 31 3 35 28 35 87 0 223 62 287 131 55 59
75 106 75 178 0 47 -6 67 -34 114 l-35 57 26 30 c16 20 34 30 52 30 34 0 59
25 67 67 4 22 15 35 35 44 41 16 69 55 69 95 0 25 7 38 25 50 33 22 65 91 65
143 0 31 7 51 25 73 26 31 31 67 19 140 -9 50 -25 41 -81 -46 -26 -39 -85
-109 -133 -156 -71 -70 -110 -98 -220 -160 -95 -53 -152 -92 -192 -132 -57
-58 -58 -58 -117 -58 -51 0 -61 3 -66 20 -10 32 -87 92 -191 149 -188 103
-297 197 -388 338 -50 78 -71 93 -80 60z m69 -69 c52 -82 154 -190 230 -243
33 -23 107 -68 165 -100 58 -32 123 -77 146 -100 40 -41 99 -161 113 -230 6
-26 11 -19 46 75 50 133 94 180 248 264 60 32 135 78 167 102 76 58 169 158
215 233 21 34 41 61 46 61 13 0 21 -83 11 -110 -6 -14 -17 -32 -26 -39 -9 -8
-16 -29 -16 -51 0 -55 -18 -100 -56 -140 -20 -21 -34 -46 -34 -60 0 -37 -33
-85 -69 -100 -22 -9 -31 -19 -31 -35 0 -33 -37 -75 -67 -75 -18 0 -47 -22
-106 -84 -84 -86 -156 -131 -245 -155 l-42 -12 0 -58 c0 -32 -3 -113 -7 -179
-5 -106 -8 -122 -23 -122 -14 0 -18 15 -24 92 -3 50 -6 130 -6 178 l0 86 -61
18 c-82 25 -167 84 -241 167 -48 53 -68 69 -89 69 -32 0 -69 41 -69 75 0 16
-9 26 -30 35 -42 17 -70 56 -70 96 0 25 -7 38 -29 53 -35 25 -61 86 -61 142 0
29 -7 50 -25 71 -15 18 -25 42 -25 61 0 38 10 77 19 77 3 0 24 -28 46 -62z"/>
<path d="M2370 4050 c-16 -29 13 -82 43 -78 17 2 22 9 20 32 -2 28 -28 66 -44
66 -5 0 -13 -9 -19 -20z"/>
<path d="M3601 4044 c-27 -34 -24 -68 6 -72 26 -4 46 27 41 65 -4 37 -22 39
-47 7z"/>
<path d="M2517 3903 c-13 -12 -7 -51 11 -74 25 -30 52 -20 52 19 0 40 -42 76
-63 55z"/>
<path d="M3456 3895 c-21 -21 -21 -74 0 -82 23 -8 46 19 47 58 2 38 -21 50
-47 24z"/>
<path d="M2704 3736 c-7 -19 12 -53 37 -67 47 -25 67 21 26 59 -27 25 -55 29
-63 8z"/>
<path d="M3252 3727 c-42 -44 -16 -85 33 -53 17 11 25 26 25 46 0 37 -27 40
-58 7z"/>
<path d="M2680 4207 c0 -23 57 -103 89 -126 57 -41 137 -62 230 -62 96 0 164
17 222 56 45 29 99 99 99 128 0 16 -7 13 -44 -21 -37 -34 -53 -41 -117 -52
-83 -14 -292 -8 -352 10 -21 6 -56 27 -76 46 -42 37 -51 41 -51 21z"/>
<path d="M2976 3978 c-11 -15 -16 -45 -16 -94 0 -92 14 -134 45 -134 30 0 45
42 45 129 0 101 -38 151 -74 99z m59 -103 c0 -64 -4 -88 -16 -100 -29 -29 -44
6 -44 100 0 94 15 129 44 100 12 -12 16 -36 16 -100z"/>
<path d="M2154 3588 c57 -103 76 -196 76 -368 l0 -147 76 -11 c82 -11 109 -28
119 -72 6 -26 11 -29 68 -37 l62 -8 7 35 c11 55 9 240 -2 240 -5 0 -10 -6 -10
-14 0 -19 -39 -66 -55 -66 -7 0 -27 13 -43 30 -27 26 -31 39 -37 112 -20 223
-99 334 -258 363 l-38 7 35 -64z m74 18 c103 -52 153 -142 171 -310 12 -106
20 -127 53 -150 31 -22 64 -20 88 6 l20 22 -6 -104 c-4 -58 -7 -105 -8 -106 0
0 -24 2 -52 4 -46 3 -51 6 -60 35 -14 46 -52 68 -125 74 l-64 5 -1 147 c0 164
-16 248 -64 343 -33 67 -26 72 48 34z"/>
<path d="M3817 3636 c-87 -31 -150 -96 -182 -186 -9 -25 -22 -94 -30 -155 -12
-98 -16 -112 -40 -133 -36 -30 -55 -25 -85 22 l-25 39 -5 -124 -5 -124 -9 69
c-5 38 -6 107 -2 153 3 46 3 83 -2 83 -14 0 -63 -84 -75 -127 -9 -34 -16 -43
-33 -43 -11 0 -29 -8 -38 -19 -16 -18 -15 -20 18 -41 44 -26 46 -49 6 -72 -16
-9 -32 -27 -35 -40 -4 -17 -20 -29 -56 -41 -44 -16 -119 -76 -119 -96 0 -4 24
-4 53 0 28 4 86 8 127 8 l76 1 14 42 c10 28 26 50 47 63 18 11 33 29 34 40 1
14 3 16 6 4 3 -13 13 -14 56 -8 29 4 60 8 70 8 9 1 17 8 17 16 0 29 23 64 49
74 14 5 53 13 85 17 l59 7 -6 86 c-12 162 25 352 88 451 l25 40 -22 0 c-13 -1
-40 -7 -61 -14z m21 -64 c-49 -104 -62 -172 -62 -339 l-1 -153 -40 0 c-89 0
-145 -34 -145 -86 0 -20 -6 -23 -57 -26 -32 -2 -59 -4 -59 -3 -1 0 -5 50 -9
110 l-7 110 22 -27 c51 -66 123 -16 135 94 18 175 41 240 103 301 38 37 105
76 133 77 13 0 10 -11 -13 -58z m-421 -434 c0 -57 5 -121 10 -144 10 -39 9
-41 -28 -72 -26 -22 -40 -44 -45 -67 l-6 -35 -93 0 c-51 0 -102 -3 -112 -6
-11 -3 -3 9 19 29 20 20 54 41 76 46 30 9 41 18 46 36 4 16 20 32 42 43 33 15
35 19 30 50 -6 43 8 120 33 178 11 24 22 44 24 44 2 0 4 -46 4 -102z m-87 -58
c0 -22 -1 -23 -24 -14 -13 5 -14 9 -5 20 16 20 29 17 29 -6z"/>
<path d="M2594 3163 c0 -65 -3 -143 -7 -173 -9 -54 -8 -56 17 -68 27 -12 40
-34 50 -84 6 -28 8 -28 84 -29 42 0 100 -4 127 -9 28 -4 52 -6 54 -4 11 11
-79 87 -120 101 -34 12 -49 24 -57 45 -6 16 -23 34 -39 41 -27 12 -28 14 -28
87 -1 42 -7 91 -15 110 -17 42 -52 100 -61 100 -4 0 -6 -53 -5 -117z m67 -102
c0 -79 0 -79 31 -92 18 -7 34 -24 40 -40 7 -21 21 -32 57 -44 26 -8 61 -30 77
-47 21 -22 24 -29 11 -25 -10 4 -60 7 -111 7 l-92 0 -12 46 c-9 33 -20 50 -42
62 -24 13 -29 22 -24 37 3 11 8 79 12 150 l5 130 24 -52 c19 -42 24 -69 24
-132z"/>
<path d="M2690 3069 c0 -40 0 -41 23 -27 12 8 28 18 35 22 18 11 -13 46 -40
46 -14 0 -18 -8 -18 -41z m35 11 c0 -7 -6 -15 -12 -17 -8 -3 -13 4 -13 17 0
13 5 20 13 18 6 -3 12 -11 12 -18z"/>
<path d="M2442 2897 c-31 -33 -30 -96 1 -125 33 -31 96 -30 125 1 31 33 30 96
-1 125 -33 31 -96 30 -125 -1z m113 -12 c14 -13 25 -36 25 -50 0 -34 -42 -75
-76 -75 -37 0 -74 36 -74 72 0 36 40 78 75 78 14 0 37 -11 50 -25z"/>
<path d="M3452 2897 c-31 -33 -30 -96 1 -125 34 -32 100 -30 132 3 58 57 16
145 -68 145 -33 0 -49 -6 -65 -23z m107 -2 c48 -24 55 -72 16 -110 -31 -32
-80 -33 -112 -3 -31 29 -30 72 2 103 28 29 54 31 94 10z"/>
<path d="M1862 4811 c-71 -78 -73 -83 -36 -104 7 -4 9 4 6 22 -2 15 2 32 10
38 21 18 165 -116 154 -143 -4 -10 -4 -14 1 -9 4 6 23 27 42 47 25 28 29 36
15 32 -13 -3 -41 16 -92 62 -60 55 -71 69 -60 81 7 9 24 13 45 11 l33 -4 -22
23 c-12 13 -22 23 -23 23 -1 0 -34 -36 -73 -79z"/>
<path d="M2970 2325 l0 -116 72 3 c46 2 73 7 76 16 3 9 -12 12 -52 12 l-56 0
0 35 c0 35 0 35 45 35 33 0 45 4 45 15 0 11 -12 15 -45 15 -43 0 -45 1 -45 30
0 29 1 30 50 30 43 0 50 3 50 20 0 18 -7 20 -70 20 l-70 0 0 -115z"/>
<path d="M2872 2355 c2 -41 2 -75 1 -75 0 0 -24 32 -53 70 -31 41 -59 70 -70
70 -16 0 -17 -8 -13 -87 5 -113 10 -133 30 -133 14 0 15 10 10 75 -3 41 -4 75
-2 75 2 0 26 -31 55 -70 29 -38 59 -70 68 -70 17 0 17 32 3 208 -1 6 -8 12
-17 12 -13 0 -15 -12 -12 -75z"/>
<path d="M3190 2412 c-18 -14 -24 -32 -28 -75 -6 -80 2 -106 43 -123 55 -23
115 14 115 72 0 24 -5 33 -22 38 -38 10 -58 7 -58 -9 0 -8 9 -15 19 -15 26 0
31 -10 20 -37 -13 -34 -66 -32 -79 3 -11 28 -3 102 13 122 15 19 55 14 67 -8
12 -23 40 -27 40 -5 0 47 -87 71 -130 37z"/>
<path d="M3387 2383 c-14 -83 -19 -180 -11 -185 5 -3 37 -8 72 -12 51 -6 62
-4 62 8 0 14 -17 19 -88 29 -7 1 -13 5 -13 10 1 4 1 19 1 33 0 24 2 25 44 19
33 -5 44 -3 49 8 4 12 -5 17 -42 22 -46 6 -47 7 -43 37 l5 31 53 -6 c42 -4 54
-3 54 9 0 14 -15 19 -91 29 l-46 6 -6 -38z"/>
<path d="M2495 2378 c-2 -7 -11 -51 -20 -98 -9 -47 -19 -93 -21 -102 -4 -13 0
-18 15 -18 14 0 21 6 21 20 0 38 94 56 105 20 6 -20 29 -27 39 -12 2 4 -20 51
-50 105 -51 90 -78 116 -89 85z m55 -88 c20 -39 20 -40 1 -40 -11 0 -27 -3
-36 -6 -16 -7 -16 4 2 69 6 24 10 22 33 -23z"/>
<path d="M3576 2293 c-11 -54 -21 -104 -23 -110 -3 -8 3 -13 15 -13 16 0 22 9
27 40 6 33 11 40 30 40 18 0 24 -7 30 -37 9 -49 22 -73 40 -73 19 0 19 7 0 60
-18 52 -19 47 5 53 29 8 46 51 32 82 -13 28 -35 39 -98 49 l-40 7 -18 -98z
m108 44 c29 -21 16 -51 -23 -55 -41 -4 -51 5 -44 41 6 30 36 37 67 14z"/>
<path d="M2342 2361 c-7 -4 -18 -38 -24 -74 -6 -37 -14 -67 -17 -67 -3 0 -26
24 -50 54 -30 36 -50 52 -62 49 -16 -4 -15 -13 12 -110 15 -58 31 -108 34
-111 3 -3 11 0 17 6 9 9 8 22 -1 54 -24 83 -23 85 16 41 45 -50 62 -46 70 16
8 61 19 58 33 -10 14 -64 19 -72 39 -60 10 6 7 29 -14 107 -29 108 -34 117
-53 105z"/>
<path d="M3815 2328 c-3 -7 -18 -55 -34 -106 -24 -78 -27 -94 -15 -99 8 -3 16
-4 18 -2 10 10 65 203 60 210 -8 13 -24 11 -29 -3z"/>
<path d="M2006 2249 c-30 -23 -33 -54 -10 -87 14 -20 23 -23 72 -20 48 3 57 0
60 -15 6 -27 -17 -47 -53 -47 -41 0 -56 -27 -20 -36 34 -8 98 26 109 59 7 19
5 32 -8 53 -17 25 -22 26 -72 21 -45 -5 -56 -3 -63 12 -13 24 1 42 39 50 19 3
35 12 38 19 7 21 -63 14 -92 -9z"/>
<path d="M4023 2243 c-28 -6 -39 -33 -13 -33 11 0 20 -2 20 -5 0 -3 -16 -37
-35 -75 -39 -77 -42 -90 -21 -90 18 0 110 176 102 196 -5 14 -12 15 -53 7z"/>
<path d="M2400 1297 l25 -13 0 -159 0 -159 -25 -13 c-22 -11 -12 -13 75 -12
55 1 89 4 75 8 -27 8 -43 58 -38 121 3 34 4 35 55 40 96 10 145 75 106 142
-26 45 -67 57 -193 57 -91 1 -102 -1 -80 -12z m177 -33 c22 -22 25 -32 20 -67
-6 -45 -27 -67 -64 -67 -22 0 -23 3 -23 73 0 41 3 77 7 80 13 13 34 7 60 -19z"/>
<path d="M2841 1269 c-86 -197 -135 -297 -154 -311 -21 -17 -20 -18 43 -17 49
0 60 2 42 9 -31 13 -36 33 -17 69 15 29 19 31 75 31 56 0 60 -2 75 -30 21 -40
19 -59 -7 -70 -16 -6 4 -9 70 -9 l93 -1 -25 23 c-14 12 -54 89 -92 177 -36 85
-70 159 -75 164 -5 5 -17 -10 -28 -35z m15 -136 c11 -27 21 -51 22 -55 2 -5
-20 -8 -48 -8 -38 0 -51 3 -47 13 31 77 40 97 47 97 4 0 16 -21 26 -47z"/>
<path d="M3040 1259 c0 -31 4 -48 10 -44 6 3 10 12 10 20 0 20 49 55 77 55
l23 0 -2 -162 c-3 -162 -3 -162 -28 -175 -22 -11 -12 -13 75 -13 87 0 97 2 75
13 -25 13 -25 13 -28 175 l-2 162 22 -1 c39 -1 60 -14 79 -50 l18 -34 1 53 0
52 -165 0 -165 0 0 -51z"/>
<path d="M3423 1298 l27 -10 -2 -166 -3 -166 -25 -7 c-14 -4 19 -7 75 -8 87
-1 97 1 75 12 l-25 13 0 159 0 159 25 13 c22 11 12 13 -75 12 -80 0 -94 -3
-72 -11z"/>
</g>
</svg>
